<svg width="79" height="79" viewBox="0 0 79 79" fill="none" xmlns="http://www.w3.org/2000/svg">
<g clip-path="url(#clip0_10_194)">
<path d="M13.1654 26.3341C13.1654 22.8421 14.5526 19.4931 17.0218 17.0239C19.4911 14.5547 22.8401 13.1675 26.3321 13.1675H52.6654C56.1574 13.1675 59.5064 14.5547 61.9756 17.0239C64.4449 19.4931 65.8321 22.8421 65.8321 26.3341V52.6675C65.8321 56.1595 64.4449 59.5085 61.9756 61.9777C59.5064 64.4469 56.1574 65.8341 52.6654 65.8341H26.3321C22.8401 65.8341 19.4911 64.4469 17.0218 61.9777C14.5526 59.5085 13.1654 56.1595 13.1654 52.6675V26.3341Z" stroke="#F68D1F" stroke-width="2" stroke-linecap="round" stroke-linejoin="round"/>
<path d="M29.625 39.5C29.625 42.119 30.6654 44.6308 32.5173 46.4827C34.3692 48.3346 36.881 49.375 39.5 49.375C42.119 49.375 44.6308 48.3346 46.4827 46.4827C48.3346 44.6308 49.375 42.119 49.375 39.5C49.375 36.881 48.3346 34.3692 46.4827 32.5173C44.6308 30.6654 42.119 29.625 39.5 29.625C36.881 29.625 34.3692 30.6654 32.5173 32.5173C30.6654 34.3692 29.625 36.881 29.625 39.5Z" stroke="#F68D1F" stroke-width="2" stroke-linecap="round" stroke-linejoin="round"/>
<path d="M54.3125 24.6875V24.7196" stroke="#F68D1F" stroke-width="2" stroke-linecap="round" stroke-linejoin="round"/>
</g>
<defs>
<clipPath id="clip0_10_194">
<rect width="79" height="79" fill="white"/>
</clipPath>
</defs>
</svg>
