<svg width="67" height="67" viewBox="0 0 67 67" fill="none" xmlns="http://www.w3.org/2000/svg">
<path d="M33.5016 4.2085C17.5413 4.21347 4.2068 17.5651 4.20687 33.5123C4.2069 39.2616 5.91805 44.9409 9.11179 49.7422L4.19775 62.8163L20.653 59.8405C24.6726 61.8051 29.0866 62.7895 33.5016 62.7924C49.4757 62.8034 62.8226 49.4694 62.8226 33.5123C62.8226 17.5735 49.4709 4.19907 33.5016 4.2085Z" stroke="#F68D1F" stroke-width="2" stroke-linecap="round" stroke-linejoin="round"/>
<path d="M35.1143 46.4173C39.0786 48.9622 43.2118 47.1086 46.0903 44.9618C48.0785 43.4789 48.0125 40.6187 46.3143 38.8109L42.9657 35.246C41.6955 36.5162 39.2202 37.1449 37.5004 36.6215C33.8037 35.4964 32.2521 33.5701 30.9948 31.6115C29.5508 29.3619 31.1815 26.0022 32.4517 24.732L28.7193 21.3245C27.1457 19.888 24.7557 19.6456 23.3827 21.2749C20.6663 24.4985 18.9769 29.3926 20.9776 32.5088C24.5693 38.1029 29.5198 42.8261 35.1143 46.4173Z" stroke="#F68D1F" stroke-width="2" stroke-linecap="round" stroke-linejoin="round"/>
</svg>
